<?xml version="1.0" encoding="UTF-8" standalone="no"?>
<!DOCTYPE svg PUBLIC "-//W3C//DTD SVG 1.0//EN" "http://www.w3.org/TR/2001/REC-SVG-20010904/DTD/svg10.dtd">
<svg width="512px" height="512px" viewBox="0 0 512 512" version="1.1" xmlns="http://www.w3.org/2000/svg" xmlns:xlink="http://www.w3.org/1999/xlink" xmlns:sketch="http://www.bohemiancoding.com/sketch/ns">
    <!-- Generator: Sketch 3.1 (8751) - http://www.bohemiancoding.com/sketch -->
    <title>Vector 1</title>
    <desc>Created with Sketch.</desc>
    <defs>
        <linearGradient x1="50%" y1="0%" x2="50%" y2="100%" id="linearGradient-1">
            <stop stop-color="#FF9800" offset="0%"></stop>
            <stop stop-color="#FF9800" offset="100%"></stop>
        </linearGradient>
        <path d="M1,256 L1,106.458333 C1,85.1666667 22.2916667,63.875 64.875,63.875 L107.458333,63.875 C128.75,63.875 128.75,63.875 128.75,42.5833333 L128.75,5.68434189e-14 L150.041667,5.68434189e-14 L227.21876,42.5833333 C253.096504,57.1719716 274.169848,63.875 320.375,63.875 L448.125,63.875 C490.708333,63.875 512,85.1666667 512,106.458333 L512,256 L512,405.541667 C512,426.833333 490.708333,448.125 448.125,448.125 L405.541667,448.125 C384.25,448.125 384.25,448.125 384.25,469.416667 L384.25,512 L362.958333,512 L285.78124,469.416667 C259.903496,454.828028 238.830152,448.125 192.625,448.125 L64.875,448.125 C22.2916667,448.125 1,426.833333 1,405.541667 L1,256 Z" id="path-2"></path>
    </defs>
    <g id="Page-1" stroke="none" stroke-width="1" fill="none" fill-rule="evenodd" sketch:type="MSPage">
        <g id="Bubble">
            <use fill="none" sketch:type="MSShapeGroup" xlink:href="#path-2"></use>
            <use fill="url(#linearGradient-1)" fill-rule="evenodd" xlink:href="#path-2"></use>
        </g>
        <path d="M83,164.436425 L83,362.717675 C83,365.530189 83.8437416,367.780166 85.53125,369.467675 C87.2187584,370.967682 89.2812378,371.717675 91.71875,371.717675 C93.9687613,371.717675 95.9374916,370.967682 97.625,369.467675 C99.5000094,367.780166 100.4375,365.530189 100.4375,362.717675 L100.4375,263.717675 L221.9375,263.717675 L221.9375,362.717675 C221.9375,365.530189 222.781242,367.780166 224.46875,369.467675 C226.156258,370.967682 228.218738,371.717675 230.65625,371.717675 C232.906261,371.717675 234.874992,370.967682 236.5625,369.467675 C238.437509,367.780166 239.375,365.530189 239.375,362.717675 L239.375,164.436425 C239.375,161.43641 238.437509,159.092683 236.5625,157.405175 C234.874992,155.905167 232.906261,155.155175 230.65625,155.155175 C228.218738,155.155175 226.156258,155.905167 224.46875,157.405175 C222.781242,159.092683 221.9375,161.43641 221.9375,164.436425 L221.9375,247.967675 L100.4375,247.967675 L100.4375,164.436425 C100.4375,161.43641 99.5000094,159.092683 97.625,157.405175 C95.9374916,155.905167 93.9687613,155.155175 91.71875,155.155175 C89.2812378,155.155175 87.2187584,155.905167 85.53125,157.405175 C83.8437416,159.092683 83,161.43641 83,164.436425 L83,164.436425 Z M273.375,166.405175 L273.375,361.873925 C273.375,364.87394 274.218742,367.311415 275.90625,369.186425 C277.593758,370.873933 279.656238,371.811424 282.09375,371.998925 C284.531262,371.998925 286.593742,371.155183 288.28125,369.467675 C290.156259,367.592665 291.09375,365.061441 291.09375,361.873925 L291.09375,187.217675 L386.4375,344.436425 L402.1875,367.498925 C404.437511,371.436444 408.093725,372.655182 413.15625,371.155175 C418.218775,369.842668 420.75,365.998957 420.75,359.623925 L420.75,162.748925 C420.75,160.311413 419.812509,158.436431 417.9375,157.123925 C416.249992,155.811418 414.187512,155.155175 411.75,155.155175 C409.312488,155.155175 407.250008,155.717669 405.5625,156.842675 C403.874992,158.342682 403.03125,160.311413 403.03125,162.748925 L403.03125,339.373925 L304.3125,175.123925 L294.75,161.061425 C291.749985,156.373901 287.437528,154.405171 281.8125,155.155175 C276.187472,156.092679 273.375,159.842642 273.375,166.405175 L273.375,166.405175 Z" id="HN" fill="#FFFFFF" sketch:type="MSShapeGroup"></path>
    </g>
</svg>